<svg xmlns="http://www.w3.org/2000/svg" viewBox="0 0 901.99 240"><defs><style>.cls-1{fill:#fff;}.cls-2{fill:#ff9017;}.cls-3{fill:#fafafa;}</style></defs><g id="Camada_2" data-name="Camada 2"><g id="Camada_2_cópia" data-name="Camada 2 cópia"><g id="LOGO_E_NOME" data-name="LOGO E NOME"><g id="logo"><path class="cls-1" d="M46.45,100.75V214.31A8.17,8.17,0,0,1,42.31,221h0L4.17,239.57C1.88,240.7,0,239.52,0,237V100.75c0-.23,0-.46,0-.68v-.19c0-.06,0-.13,0-.21,0-.36.06-.88.09-1.21,0-.18,0-.31,0-.31h0a23.22,23.22,0,0,1,46.3,2.6Z"/><path class="cls-2" d="M185.81,92.91a92.41,92.41,0,0,1-12.43,46.45c-.29.5-.59,1-.91,1.5a93.26,93.26,0,0,1-38.73,35.52l-.19.09,0,0-1.4.68-.56.28-2.45,1.2L73.85,205.59c-2.29,1.12-4.17-.05-4.17-2.61V144a4.66,4.66,0,0,1,4.64-4.64H92.91a46.45,46.45,0,0,0,46.44-45.74c0-.24,0-.48,0-.71A46.46,46.46,0,0,0,69.68,52.67l-.6.36A46.43,46.43,0,0,0,46.65,88.64c0,.14,0,.29,0,.44l-.1-.2h0l-.06-.1A26.11,26.11,0,0,0,23.23,74.62h-.57A26.1,26.1,0,0,0,1.55,86.16C1,86.94.55,87.74.1,88.57a92.91,92.91,0,0,1,185.71,4.34Z"/></g><path class="cls-3" d="M292.58,44.38a15.89,15.89,0,0,1,8.76,2.36Q305,49.1,305,55.54t-3.67,8.8a17.08,17.08,0,0,1-17.56,0q-3.63-2.45-3.63-8.8t3.63-8.8A15.82,15.82,0,0,1,292.58,44.38ZM304,77.18v83.71H281.12V77.18Z"/><path class="cls-2" d="M364.68,51.42q21.19,0,30.93,9.1t9.73,25a43.34,43.34,0,0,1-2.17,13.74A30.57,30.57,0,0,1,396.1,111,33.93,33.93,0,0,1,383,119q-8.16,3-20.14,3h-10v38.94H329.72V51.42Zm-1.19,19H352.93v32.49h7.64a33.36,33.36,0,0,0,11.3-1.72,15.07,15.07,0,0,0,7.42-5.39,15.88,15.88,0,0,0,2.62-9.43q0-8.08-4.5-12T363.49,70.44Z"/><path class="cls-2" d="M458.5,75.45q16.86,0,25.84,7.34t9,22.32v55.78H477.37L473,149.51h-.6a42.65,42.65,0,0,1-7.34,7.33,25.23,25.23,0,0,1-8.61,4.2,44.87,44.87,0,0,1-11.83,1.34,30.08,30.08,0,0,1-13.29-2.84,21.08,21.08,0,0,1-9.25-8.72q-3.37-5.88-3.37-14.94,0-13.32,9.36-19.66t28.08-7l14.52-.45v-3.66q0-6.6-3.44-9.66t-9.58-3.07A41.79,41.79,0,0,0,445.7,94.1,92.11,92.11,0,0,0,434,98.44L426.46,83a64.18,64.18,0,0,1,14.94-5.54A71.6,71.6,0,0,1,458.5,75.45Zm12.13,46.65-8.83.3q-11.08.3-15.39,4a12.08,12.08,0,0,0-4.3,9.66c0,3.49,1,6,3.07,7.45a13.39,13.39,0,0,0,8,2.21,18.34,18.34,0,0,0,12.39-4.35q5.06-4.34,5.05-12.35Z"/><path class="cls-2" d="M563.56,75.6c1.14,0,2.48.07,4,.19a32,32,0,0,1,3.71.49l-1.72,21.41a15.14,15.14,0,0,0-3.19-.56c-1.37-.12-2.56-.19-3.55-.19a32.69,32.69,0,0,0-8.58,1.13,21.46,21.46,0,0,0-7.45,3.63,17.36,17.36,0,0,0-5.2,6.59,23.52,23.52,0,0,0-1.91,10v42.61H516.83V77.18h17.3l3.37,14.07h1.12a35.6,35.6,0,0,1,6.18-7.82,29.61,29.61,0,0,1,8.46-5.69A24.9,24.9,0,0,1,563.56,75.6Z"/><path class="cls-2" d="M609.3,44.38V96.49c0,3.15-.12,6.29-.37,9.44s-.52,6.29-.82,9.43h.3c1.54-2.19,3.13-4.36,4.75-6.51s3.36-4.22,5.2-6.22L641.8,77.18h25.76l-33.25,36.31,35.27,47.4H643.22L619.11,127l-9.81,7.86v26.06H586.47V44.38Z"/><path class="cls-2" d="M693,44.38a15.89,15.89,0,0,1,8.76,2.36q3.66,2.35,3.67,8.8t-3.67,8.8a17.08,17.08,0,0,1-17.56,0q-3.63-2.45-3.63-8.8t3.63-8.8A15.82,15.82,0,0,1,693,44.38Zm11.38,32.8v83.71H681.56V77.18Z"/><path class="cls-2" d="M775.9,75.6q13.41,0,21.57,7.3t8.16,23.4v54.59H782.79V112q0-9-3.25-13.55c-2.18-3-5.58-4.57-10.23-4.57q-10.47,0-14.3,7.12t-3.82,20.51v39.39H728.36V77.18H745.8l3.07,10.7h1.28a22.78,22.78,0,0,1,6.7-7,28.73,28.73,0,0,1,8.91-4A40.14,40.14,0,0,1,775.9,75.6Z"/><path class="cls-2" d="M853.63,197.73q-17.53,0-26.77-6.11a19.36,19.36,0,0,1-9.25-17.11,17.89,17.89,0,0,1,4.72-12.65q4.71-5.09,13.85-7.26a15.23,15.23,0,0,1-6.14-4.91,12.05,12.05,0,0,1,.15-15.2,32.26,32.26,0,0,1,8-6.25,22.51,22.51,0,0,1-10.45-9.13,27.84,27.84,0,0,1-3.85-14.83q0-9.14,4-15.53A25.3,25.3,0,0,1,839.59,79q7.67-3.36,18.68-3.37c1.54,0,3.34.11,5.39.3s3.93.43,5.65.68,2.88.45,3.48.6H902v11.6l-13.1,3.37a21.84,21.84,0,0,1,2.7,5.92,24,24,0,0,1,.9,6.66q0,13.49-9.4,21T857,133.26c-2.64-.15-5.14-.35-7.48-.6a10.62,10.62,0,0,0-2.62,2.85,6,6,0,0,0-.9,3.14,3.33,3.33,0,0,0,1.38,2.73,9.92,9.92,0,0,0,4.2,1.65,36.85,36.85,0,0,0,7,.56h14.22q13.79,0,21,5.92T901,166.88q0,14.67-12.24,22.76T853.63,197.73Zm1-14.9a56.28,56.28,0,0,0,14-1.54,21.58,21.58,0,0,0,9-4.34,8.68,8.68,0,0,0,3.14-6.7,6.73,6.73,0,0,0-1.83-5,10.59,10.59,0,0,0-5.54-2.59,50.09,50.09,0,0,0-9.47-.74H852.13a19.9,19.9,0,0,0-7.53,1.34,12.66,12.66,0,0,0-5.28,3.79,8.75,8.75,0,0,0-1.94,5.65q0,4.71,4.53,7.41T854.6,182.83Zm3.67-63.5q6.43,0,9.43-4t3-10.78q0-7.56-3.11-11.34t-9.32-3.78q-6.3,0-9.44,3.78t-3.14,11.34q0,6.81,3.1,10.78C850.87,118,854,119.33,858.27,119.33Z"/></g></g></g></svg>