<svg width="200" height="200" viewBox="0 0 200 200" fill="none" xmlns="http://www.w3.org/2000/svg">
<rect width="200" height="200" rx="100" fill="#15293C"/>
<path d="M76.7374 86.9522V151.975C76.6961 152.759 76.4565 153.52 76.0408 154.188C75.6251 154.855 75.0467 155.407 74.3593 155.794H74.3414L52.3971 166.434C51.0742 167.075 49.9922 166.404 49.9922 164.941V86.9522C49.9922 86.8192 49.9922 86.6891 49.9922 86.5591C49.9922 86.5177 49.9922 86.4793 49.9922 86.4527C49.9922 86.4261 49.9922 86.3758 49.9922 86.3345C49.9922 86.1276 50.0279 85.829 50.0427 85.6428L50.0576 85.4655C50.4383 82.088 52.1051 78.9835 54.7157 76.7894C57.3263 74.5954 60.6827 73.4782 64.0958 73.6674C67.5088 73.8565 70.7196 75.3375 73.0688 77.8064C75.4181 80.2752 76.7276 83.5446 76.7285 86.9433L76.7374 86.9522Z" fill="white"/>
<path d="M157 82.4597C157.016 91.7995 154.546 100.977 149.839 109.06C149.672 109.356 149.5 109.63 149.316 109.917C143.998 118.682 136.259 125.744 127.02 130.26L126.91 130.311H126.887L126.084 130.713L125.763 130.872L124.348 131.558L92.5402 146.986C91.2174 147.627 90.1353 146.956 90.1353 145.493V111.72C90.1353 111.014 90.4172 110.338 90.9189 109.839C91.4207 109.34 92.1012 109.06 92.8107 109.06H103.512C110.538 109.061 117.281 106.314 122.287 101.414C127.293 96.513 130.159 89.8514 130.267 82.8675C130.267 82.7316 130.267 82.5956 130.267 82.4597C130.267 77.7901 129.031 73.2028 126.683 69.1587C124.335 65.1146 120.958 61.7564 116.89 59.4214C112.823 57.0865 108.21 55.8572 103.513 55.8571C98.8164 55.857 94.2026 57.0861 90.1353 59.4209C90.0194 59.4859 89.9034 59.5568 89.7905 59.6277C86.1729 61.7742 83.1169 64.7404 80.8717 68.2845C78.6265 71.8286 77.2557 75.8503 76.8712 80.0213C76.8712 80.1041 76.8712 80.1898 76.8474 80.2755L76.7909 80.1573L76.7374 80.0952C75.4713 77.6532 73.5531 75.6051 71.1934 74.1755C68.8337 72.7459 66.1236 71.9901 63.3603 71.991C63.2504 71.991 63.1433 71.991 63.0334 71.991C60.6219 72.0406 58.258 72.6671 56.1416 73.8175C54.0253 74.9678 52.2188 76.6082 50.8751 78.5997C50.5736 79.045 50.2957 79.5057 50.0427 79.9799C50.7011 66.1052 56.7911 53.0367 67.0116 43.5669C77.232 34.0971 90.7723 28.977 104.739 29.3009C118.706 29.6247 131.991 35.3666 141.757 45.2998C151.522 55.2329 156.993 68.5695 157 82.4597V82.4597Z" fill="#FF9017"/>
</svg>
